<?xml version="1.0" encoding="UTF-8"?>
<svg id="_레이어_2" data-name="레이어 2" xmlns="http://www.w3.org/2000/svg" viewBox="0 0 416.45 67.55">
  <defs>
    <style>
      .cls-1 {
        fill: #fff;
        stroke-width: 0px;
      }
    </style>
  </defs>
  <g id="_레이어_1-2" data-name="레이어 1">
    <g>
      <g>
        <path class="cls-1" d="M48.19,18.3c5.42,0,9.39,1.47,11.89,4.42,2.5,2.95,3.76,6.96,3.76,12.03v32.1h-6.01v-30.5c0-1.95-.16-3.68-.49-5.22-.32-1.53-.88-2.84-1.68-3.93-.8-1.09-1.89-1.93-3.27-2.52-1.39-.59-3.14-.88-5.26-.88-1.95,0-3.66.35-5.13,1.06-1.47.71-2.73,1.62-3.76,2.74-1.03,1.12-1.83,2.39-2.39,3.8-.56,1.41-.87,2.8-.93,4.16v31.3h-6.01v-30.5c0-1.95-.16-3.68-.49-5.22-.32-1.53-.88-2.84-1.68-3.93-.8-1.09-1.89-1.93-3.27-2.52-1.39-.59-3.14-.88-5.26-.88-1.94,0-3.68.37-5.22,1.11-1.53.74-2.82,1.69-3.85,2.87-1.03,1.18-1.81,2.48-2.34,3.89-.53,1.41-.8,2.83-.8,4.24v30.95H0V19.19h5.92v6.63c.53-.94,1.19-1.87,1.99-2.79.8-.91,1.75-1.72,2.87-2.43,1.12-.71,2.37-1.27,3.76-1.68,1.39-.41,2.96-.62,4.73-.62,3.83,0,6.93.75,9.28,2.25,2.36,1.5,4.07,3.64,5.13,6.41.53-1,1.22-2.02,2.08-3.05.85-1.03,1.89-1.96,3.09-2.79,1.21-.82,2.59-1.5,4.16-2.03,1.56-.53,3.29-.8,5.17-.8Z"/>
        <path class="cls-1" d="M95.67,18.3c6.42,0,11.41,1.89,14.94,5.66,3.54,3.77,5.31,9.11,5.31,16v5.92c0,6.9-1.77,12.23-5.31,16-3.54,3.77-8.52,5.66-14.94,5.66s-11.41-1.89-14.94-5.66c-3.54-3.77-5.31-9.11-5.31-16v-5.92c0-6.95,1.77-12.3,5.31-16.05,3.54-3.74,8.52-5.61,14.94-5.61ZM95.67,62.25c4.42,0,7.88-1.37,10.39-4.11,2.5-2.74,3.76-6.94,3.76-12.6v-5.22c0-5.66-1.25-9.86-3.76-12.6-2.51-2.74-5.97-4.11-10.39-4.11s-7.88,1.37-10.39,4.11c-2.51,2.74-3.76,6.94-3.76,12.6v5.22c0,5.66,1.25,9.86,3.76,12.6,2.5,2.74,5.97,4.11,10.39,4.11Z"/>
        <path class="cls-1" d="M131.57,24.32h-8.13v-5.13h8.13V6.9h6.01v12.29h13.17v5.13h-13.17v29c0,3.24.52,5.51,1.55,6.81,1.03,1.3,2.75,1.95,5.17,1.95s4.6-.29,6.72-.88l.88,4.95c-.94.35-2.2.63-3.76.84-1.56.21-2.99.31-4.29.31-2.06,0-3.88-.24-5.44-.71-1.56-.47-2.84-1.24-3.85-2.3-1-1.06-1.75-2.46-2.25-4.2-.5-1.74-.75-3.9-.75-6.5v-29.27Z"/>
        <path class="cls-1" d="M180.2,18.3c6.42,0,11.41,1.89,14.94,5.66,3.54,3.77,5.31,9.11,5.31,16v5.92c0,6.9-1.77,12.23-5.31,16-3.54,3.77-8.52,5.66-14.94,5.66s-11.41-1.89-14.94-5.66c-3.54-3.77-5.31-9.11-5.31-16v-5.92c0-6.95,1.77-12.3,5.31-16.05,3.54-3.74,8.52-5.61,14.94-5.61ZM180.2,62.25c4.42,0,7.88-1.37,10.39-4.11,2.5-2.74,3.76-6.94,3.76-12.6v-5.22c0-5.66-1.25-9.86-3.76-12.6-2.51-2.74-5.97-4.11-10.39-4.11s-7.88,1.37-10.39,4.11c-2.51,2.74-3.76,6.94-3.76,12.6v5.22c0,5.66,1.25,9.86,3.76,12.6,2.5,2.74,5.97,4.11,10.39,4.11Z"/>
        <path class="cls-1" d="M236.96,25.38c-1.65-.65-3.57-.97-5.75-.97-1.95,0-3.71.38-5.31,1.15-1.59.77-2.95,1.83-4.07,3.18-1.12,1.36-1.98,2.98-2.57,4.86-.59,1.89-.88,3.95-.88,6.19v27.06h-6.01V19.19h5.92v8.4c.53-1.12,1.19-2.24,1.99-3.36.8-1.12,1.77-2.12,2.92-3.01,1.15-.88,2.45-1.59,3.89-2.12,1.44-.53,3.08-.8,4.91-.8,1.36,0,2.58.07,3.67.22,1.09.15,2.14.4,3.14.75l-1.86,6.1Z"/>
        <path class="cls-1" d="M262.07,62.16c3.89,0,6.84-.77,8.84-2.3,2-1.53,3.01-3.33,3.01-5.39v-.88c0-2.42-.99-4.24-2.96-5.48-1.98-1.24-5.26-2.3-9.86-3.18-2.42-.47-4.6-1.03-6.54-1.68-1.94-.65-3.6-1.47-4.95-2.48-1.36-1-2.42-2.2-3.18-3.58-.77-1.38-1.15-3.05-1.15-5v-1.24c0-1.71.35-3.33,1.06-4.86.71-1.53,1.77-2.87,3.18-4.02s3.2-2.06,5.35-2.74c2.15-.68,4.7-1.02,7.65-1.02,3.65,0,6.81.46,9.46,1.37,2.65.91,4.95,2.11,6.9,3.58l-2.74,4.51c-2-1.36-4.04-2.39-6.1-3.09-2.06-.71-4.63-1.06-7.69-1.06-3.6,0-6.34.72-8.22,2.17-1.89,1.45-2.83,3.2-2.83,5.26v.97c0,2.06,1.05,3.68,3.14,4.86,2.09,1.18,5.02,2.12,8.8,2.83,5.89,1.12,10.15,2.71,12.78,4.77,2.62,2.06,3.93,5.01,3.93,8.84v1.33c0,1.89-.44,3.63-1.33,5.22-.88,1.59-2.11,2.96-3.67,4.11-1.56,1.15-3.4,2.03-5.53,2.65-2.12.62-4.45.93-6.98.93-3.89,0-7.35-.52-10.39-1.55-3.04-1.03-5.67-2.37-7.91-4.02l2.92-4.77c2.18,1.47,4.52,2.67,7.03,3.58,2.5.91,5.17,1.37,8,1.37Z"/>
        <path class="cls-1" d="M311.23,18.3c5.48,0,9.71,1.49,12.69,4.47,2.98,2.98,4.46,6.97,4.46,11.98v32.1h-6.01v-30.59c0-1.71-.18-3.32-.53-4.82-.35-1.5-.99-2.83-1.9-3.98-.91-1.15-2.15-2.05-3.71-2.7-1.56-.65-3.52-.97-5.88-.97-2,0-3.85.37-5.53,1.11-1.68.74-3.11,1.69-4.29,2.87-1.18,1.18-2.11,2.48-2.79,3.89s-1.02,2.83-1.02,4.24v30.95h-6.01V0h6.01v25.82c.53-.88,1.24-1.78,2.12-2.7.88-.91,1.93-1.72,3.14-2.43,1.21-.71,2.58-1.28,4.11-1.72,1.53-.44,3.24-.66,5.13-.66Z"/>
        <path class="cls-1" d="M360.22,18.3c6.42,0,11.41,1.89,14.94,5.66,3.54,3.77,5.31,9.11,5.31,16v5.92c0,6.9-1.77,12.23-5.31,16-3.54,3.77-8.52,5.66-14.94,5.66s-11.41-1.89-14.94-5.66c-3.54-3.77-5.31-9.11-5.31-16v-5.92c0-6.95,1.77-12.3,5.31-16.05,3.54-3.74,8.52-5.61,14.94-5.61ZM360.22,62.25c4.42,0,7.88-1.37,10.39-4.11,2.5-2.74,3.76-6.94,3.76-12.6v-5.22c0-5.66-1.25-9.86-3.76-12.6-2.51-2.74-5.97-4.11-10.39-4.11s-7.88,1.37-10.39,4.11c-2.51,2.74-3.76,6.94-3.76,12.6v5.22c0,5.66,1.25,9.86,3.76,12.6,2.5,2.74,5.97,4.11,10.39,4.11Z"/>
        <path class="cls-1" d="M396.11,24.32h-8.13v-5.13h8.13V6.9h6.01v12.29h13.17v5.13h-13.17v29c0,3.24.52,5.51,1.55,6.81,1.03,1.3,2.75,1.95,5.17,1.95s4.6-.29,6.72-.88l.88,4.95c-.94.35-2.2.63-3.76.84-1.56.21-2.99.31-4.29.31-2.06,0-3.88-.24-5.44-.71-1.56-.47-2.84-1.24-3.85-2.3-1-1.06-1.75-2.46-2.25-4.2-.5-1.74-.75-3.9-.75-6.5v-29.27Z"/>
      </g>
      <ellipse class="cls-1" cx="360.22" cy="42.93" rx="5.84" ry="7.68"/>
    </g>
  </g>
</svg>