<?xml version="1.0" encoding="UTF-8"?>
<svg id="_레이어_2" data-name="레이어 2" xmlns="http://www.w3.org/2000/svg" viewBox="0 0 582.36 256.27">
  <defs>
    <style>
      .cls-1 {
        fill: #fff;
        stroke-width: 0px;
      }
    </style>
  </defs>
  <g id="_레이어_1-2" data-name="레이어 1">
    <g>
      <path class="cls-1" d="M46.2,166.71c-5.64.12-11.57,2.65-16.36,7.72-12,12.68-8.06,33.65,7.64,40.64,12.11,5.39,26.62-1.2,31.8-14.45,6.37-16.3-4.89-33.85-23.07-33.9Z"/>
      <path class="cls-1" d="M235.01,132.82c10.08-2.67,20.17-2.48,30.18.54,1.41.42,3.21,1.16,3.19-1.23-.03-4.93-.26-9.87-.45-14.87-.06-1.63-1.41-2.93-3.04-2.92-.47,0-.93,0-1.39.02-13.52.37-27.03.7-40.55,1.16-2.19.07-3.63-.57-5.04-2.27-4.71-5.66-9.55-11.21-14.41-16.84-1.05-1.22-2.88-1.41-4.16-.43-.09.07-.18.14-.28.21-8.04,6.27-16.02,12.61-24.14,18.76-1.37,1.04-3.32,1.77-5.03,1.84-11.33.47-22.67,1.18-33.99.87-6.6-.18-11.2,1.17-13.17,7.9-.2.68-.71,1.27-1.05,1.91-2.51,4.77-4.51,5.9-9.89,5.3-1.74-.2-3.49-.64-5.14-1.22-9.89-3.46-16.46-12.16-16.07-21.11.11-2.53.91-4.49,3.14-6.04,4.78-3.32,9.4-6.87,14.09-10.33,8.73-6.44,17.46-12.88,26.49-19.53,1.27-.94,3.05-.75,4.1.43,10.2,11.48,19.3,22.08,29.37,33.42,1.08,1.22,2.94,1.37,4.2.35,7.52-6.07,15.77-11.34,23.17-17.31,1.23-.99,1.49-2.76.61-4.07-6.28-9.34-12.36-18.55-18.68-27.6-2.73-3.91-5.91-7.52-9.13-11.05-6.02-6.6-12.77-8.26-20.82-4.31-5.35,2.63-10.35,6.15-15.12,9.77-13,9.87-25.78,20.03-38.71,30-.87.67-2.29,1.19-3.33,1.01-5.97-1.02-11.84-.71-17.6,1-14.22,4.23-26.27,11.58-33.73,24.89-4.68,8.35-3.76,16.04,2.41,23.05.93,1.05,2.72,1.7,4.18,1.84,4.12.38,8.38-.14,12.4.63,24.37,4.69,42.23,25.24,43.38,50.39.46,9.99,7.76,20.56,21.91,20.1,16.53-.54,33.08-.62,49.62-.83,6.7-.08,13.41-.04,20.4-.02,2.02,0,3.48-1.92,2.94-3.86h0c-8.48-30.53,8.93-61.55,39.12-69.55Z"/>
      <path class="cls-1" d="M42.12,143.29c-29.1,4.4-47.82,32.87-40.55,61.65,5.68,22.48,26.66,37.93,48.44,35.69,25.1-2.58,44.23-24.38,44.24-50.21-.37-3.2-.52-6.43-1.14-9.58-4.77-24.32-27.6-41.1-51-37.56ZM78.51,204.02c-7.32,18.73-27.83,28.05-44.96,20.43-22.19-9.88-27.77-39.52-10.8-57.45,6.78-7.17,15.15-10.74,23.14-10.91,25.71.07,41.63,24.89,32.62,47.94Z"/>
      <path class="cls-1" d="M122.9,43.54c-2.02.91-3.57,1.86-2.74,4.37.83,2.51,2.27,4.36,5.24,3.14,2.46-1.01,5.18-1.91,7.11-3.62,9.77-8.64,20.81-11.81,33.5-8.43,2,.53,2.79-.09,3.56-1.75,3.79-8.09,3.81-16.17-.57-23.93C163.57,3.69,154.94-.8,144.06.12c-11.28.95-18.78,7.5-23.51,18.33,2.36.32,4.29.5,6.19.86,8.18,1.52,11.11,7.87,6.9,15.07-2.5,4.28-6.29,7.17-10.73,9.17Z"/>
      <path class="cls-1" d="M324.58,244.57l-32.09-28.28c5.1-7.94,8.03-17.3,7.93-26.98-.29-27.72-23.65-51.26-50.94-51.11-26.99.15-48.41,21.66-48.29,48.5.13,28.13,23.58,52.02,50.75,52.23,11.96.09,22.86-4.49,31.28-11.88l31.97,28.17c1.72,1.52,4.35,1.35,5.87-.37l3.9-4.42c1.52-1.72,1.35-4.35-.37-5.87ZM214.77,186.86c-.17-19.41,15.15-34.9,34.68-35.08,19.99-.19,36.92,16.62,37.14,36.87.21,19.54-15.55,35.99-34.59,36.09-20.24.11-37.05-16.99-37.23-37.87Z"/>
    </g>
    <g>
      <g>
        <path class="cls-1" d="M375.24,115.04c5.37,0,9.29,1.46,11.77,4.38,2.48,2.92,3.72,6.89,3.72,11.91v31.78h-5.95v-30.2c0-1.93-.16-3.65-.48-5.16-.32-1.52-.88-2.82-1.66-3.9-.79-1.08-1.87-1.91-3.24-2.49-1.37-.58-3.11-.88-5.21-.88-1.93,0-3.62.35-5.08,1.05-1.46.7-2.7,1.61-3.72,2.71-1.02,1.11-1.81,2.36-2.36,3.76-.56,1.4-.86,2.77-.92,4.11v30.99h-5.95v-30.2c0-1.93-.16-3.65-.48-5.16-.32-1.52-.88-2.82-1.66-3.9-.79-1.08-1.87-1.91-3.24-2.49-1.37-.58-3.11-.88-5.21-.88-1.93,0-3.65.37-5.16,1.09-1.52.73-2.79,1.68-3.81,2.84-1.02,1.17-1.79,2.45-2.32,3.85s-.79,2.8-.79,4.2v30.64h-5.95v-47.19h5.87v6.57c.52-.93,1.18-1.85,1.97-2.76.79-.9,1.74-1.71,2.84-2.41,1.11-.7,2.35-1.25,3.72-1.66,1.37-.41,2.93-.61,4.68-.61,3.79,0,6.86.74,9.19,2.23,2.33,1.49,4.03,3.6,5.08,6.35.53-.99,1.21-2,2.06-3.02.84-1.02,1.87-1.94,3.06-2.76,1.2-.82,2.57-1.49,4.11-2.01,1.55-.53,3.25-.79,5.12-.79Z"/>
        <path class="cls-1" d="M422.25,115.04c6.36,0,11.29,1.87,14.79,5.6,3.5,3.74,5.25,9.02,5.25,15.85v5.87c0,6.83-1.75,12.11-5.25,15.85-3.5,3.73-8.43,5.6-14.79,5.6s-11.29-1.87-14.79-5.6c-3.5-3.73-5.25-9.02-5.25-15.85v-5.87c0-6.89,1.75-12.18,5.25-15.89,3.5-3.71,8.43-5.56,14.79-5.56ZM422.25,158.55c4.38,0,7.81-1.36,10.29-4.07,2.48-2.71,3.72-6.87,3.72-12.48v-5.17c0-5.6-1.24-9.76-3.72-12.47-2.48-2.71-5.91-4.07-10.29-4.07s-7.81,1.36-10.29,4.07c-2.48,2.71-3.72,6.87-3.72,12.47v5.17c0,5.6,1.24,9.76,3.72,12.48,2.48,2.71,5.91,4.07,10.29,4.07Z"/>
        <path class="cls-1" d="M457.8,120.99h-8.05v-5.08h8.05v-12.17h5.95v12.17h13.04v5.08h-13.04v28.72c0,3.21.51,5.46,1.53,6.74,1.02,1.28,2.73,1.93,5.12,1.93s4.55-.29,6.65-.88l.88,4.9c-.93.35-2.17.63-3.72.83-1.55.2-2.96.31-4.25.31-2.04,0-3.84-.23-5.38-.7-1.55-.47-2.82-1.23-3.81-2.28s-1.74-2.44-2.23-4.16c-.5-1.72-.74-3.87-.74-6.43v-28.98Z"/>
        <path class="cls-1" d="M505.95,115.04c6.36,0,11.29,1.87,14.79,5.6,3.5,3.74,5.25,9.02,5.25,15.85v5.87c0,6.83-1.75,12.11-5.25,15.85-3.5,3.73-8.43,5.6-14.79,5.6s-11.29-1.87-14.79-5.6c-3.5-3.73-5.25-9.02-5.25-15.85v-5.87c0-6.89,1.75-12.18,5.25-15.89,3.5-3.71,8.43-5.56,14.79-5.56ZM505.95,158.55c4.38,0,7.81-1.36,10.29-4.07,2.48-2.71,3.72-6.87,3.72-12.48v-5.17c0-5.6-1.24-9.76-3.72-12.47-2.48-2.71-5.91-4.07-10.29-4.07s-7.81,1.36-10.29,4.07c-2.48,2.71-3.72,6.87-3.72,12.47v5.17c0,5.6,1.24,9.76,3.72,12.48,2.48,2.71,5.91,4.07,10.29,4.07Z"/>
        <path class="cls-1" d="M562.15,122.04c-1.63-.64-3.53-.96-5.69-.96-1.93,0-3.68.38-5.25,1.14-1.58.76-2.92,1.81-4.03,3.15-1.11,1.34-1.96,2.95-2.54,4.82-.58,1.87-.88,3.91-.88,6.13v26.79h-5.95v-47.19h5.87v8.32c.52-1.11,1.18-2.22,1.97-3.33.79-1.11,1.75-2.1,2.89-2.98,1.14-.88,2.42-1.58,3.85-2.1,1.43-.53,3.05-.79,4.86-.79,1.34,0,2.55.07,3.63.22,1.08.15,2.12.39,3.11.74l-1.84,6.04Z"/>
      </g>
      <g>
        <path class="cls-1" d="M407.53,246.85h-42.02v-4.81h42.02v4.81Z"/>
        <path class="cls-1" d="M429.5,233.1c3.85,0,6.77-.76,8.76-2.28,1.98-1.52,2.98-3.3,2.98-5.34v-.88c0-2.39-.98-4.2-2.93-5.43-1.96-1.23-5.21-2.28-9.76-3.15-2.39-.47-4.55-1.02-6.48-1.66-1.93-.64-3.56-1.46-4.9-2.45-1.34-.99-2.39-2.17-3.15-3.55-.76-1.37-1.14-3.02-1.14-4.95v-1.23c0-1.69.35-3.3,1.05-4.81.7-1.52,1.75-2.85,3.15-3.98s3.17-2.04,5.3-2.71c2.13-.67,4.65-1.01,7.57-1.01,3.62,0,6.74.45,9.37,1.36,2.63.91,4.9,2.09,6.83,3.55l-2.71,4.46c-1.98-1.34-4-2.36-6.04-3.06-2.04-.7-4.58-1.05-7.62-1.05-3.56,0-6.27.72-8.14,2.14-1.87,1.43-2.8,3.17-2.8,5.21v.96c0,2.04,1.04,3.65,3.11,4.82,2.07,1.17,4.97,2.1,8.71,2.8,5.84,1.11,10.05,2.68,12.65,4.73,2.6,2.04,3.9,4.96,3.9,8.75v1.31c0,1.87-.44,3.59-1.31,5.17-.88,1.58-2.09,2.93-3.63,4.07-1.55,1.14-3.37,2.01-5.47,2.63-2.1.61-4.41.92-6.92.92-3.85,0-7.28-.51-10.29-1.53-3.01-1.02-5.62-2.35-7.84-3.98l2.89-4.73c2.16,1.46,4.48,2.64,6.96,3.55,2.48.91,5.12,1.36,7.92,1.36Z"/>
        <path class="cls-1" d="M478.18,189.68c5.43,0,9.62,1.47,12.56,4.42,2.95,2.95,4.42,6.9,4.42,11.86v31.78h-5.95v-30.29c0-1.69-.17-3.28-.53-4.77-.35-1.49-.98-2.8-1.88-3.94-.91-1.14-2.13-2.03-3.68-2.67-1.55-.64-3.49-.96-5.82-.96-1.98,0-3.81.37-5.47,1.09-1.66.73-3.08,1.68-4.25,2.84-1.17,1.17-2.09,2.45-2.76,3.85s-1.01,2.8-1.01,4.2v30.64h-5.95v-66.18h5.95v25.56c.53-.88,1.23-1.76,2.1-2.67.88-.9,1.91-1.71,3.11-2.41,1.2-.7,2.55-1.27,4.07-1.71,1.52-.44,3.21-.66,5.08-.66Z"/>
        <path class="cls-1" d="M526.68,189.68c6.36,0,11.29,1.87,14.79,5.6,3.5,3.74,5.25,9.02,5.25,15.85v5.87c0,6.83-1.75,12.11-5.25,15.85s-8.43,5.6-14.79,5.6-11.29-1.87-14.79-5.6-5.25-9.02-5.25-15.85v-5.87c0-6.89,1.75-12.18,5.25-15.89,3.5-3.71,8.43-5.56,14.79-5.56ZM526.68,233.19c4.38,0,7.81-1.36,10.29-4.07,2.48-2.71,3.72-6.87,3.72-12.48v-5.17c0-5.6-1.24-9.76-3.72-12.47-2.48-2.71-5.91-4.07-10.29-4.07s-7.81,1.36-10.29,4.07c-2.48,2.71-3.72,6.87-3.72,12.47v5.17c0,5.6,1.24,9.76,3.72,12.48,2.48,2.71,5.91,4.07,10.29,4.07Z"/>
        <path class="cls-1" d="M562.22,195.63h-8.05v-5.08h8.05v-12.17h5.95v12.17h13.04v5.08h-13.04v28.72c0,3.21.51,5.46,1.53,6.74,1.02,1.28,2.73,1.93,5.12,1.93s4.55-.29,6.65-.88l.88,4.9c-.93.35-2.17.63-3.72.83-1.55.2-2.96.31-4.25.31-2.04,0-3.84-.23-5.38-.7-1.55-.47-2.82-1.23-3.81-2.28s-1.74-2.44-2.23-4.16c-.5-1.72-.74-3.87-.74-6.43v-28.98Z"/>
      </g>
      <ellipse class="cls-1" cx="526.68" cy="214.06" rx="5.78" ry="7.61"/>
    </g>
  </g>
</svg>